<svg xmlns="http://www.w3.org/2000/svg" viewBox="0 0 1000 650" role="img"><defs><marker id="a" markerWidth="10" markerHeight="10" refX="9" refY="3" orient="auto"><path d="M0 0L10 3L0 6Z" fill="#495057"/></marker><style>text{font-family:'Kaiti SC','KaiTi',Arial,sans-serif;fill:#1b1b1f}.t{font-size:24px;font-weight:700}.l{font-size:17px;font-weight:700}.n{font-size:13px;fill:#495057}.p{fill:none;stroke:#495057;stroke-width:2;marker-end:url(#a)}.d{stroke-width:2}</style></defs><rect width="1000" height="650" fill="#fff"/><text x="38" y="46" class="t">授权决策：身份、角色与资源关系</text><rect x="400" y="75" width="200" height="66" rx="12" fill="#d0ebff" stroke="#1971c2" class="d"/><text x="500" y="114" text-anchor="middle" class="l">受保护请求</text><path d="M500 141V190" class="p"/><path d="M500 185L590 245L500 305L410 245Z" fill="#ffec99" stroke="#e67700" class="d"/><text x="500" y="240" text-anchor="middle" class="l">JWT 有效？</text><text x="500" y="263" text-anchor="middle" class="n">JwtAuthGuard</text><rect x="90" y="210" width="190" height="70" rx="12" fill="#ffe3e3" stroke="#c92a2a" class="d"/><text x="185" y="250" text-anchor="middle" class="l">401 Unauthorized</text><path d="M410 245H280" class="p"/><text x="335" y="232" class="n">否</text><path d="M500 305V350" class="p"/><text x="515" y="330" class="n">是</text><path d="M500 345L590 405L500 465L410 405Z" fill="#ffec99" stroke="#e67700" class="d"/><text x="500" y="400" text-anchor="middle" class="l">角色满足？</text><text x="500" y="423" text-anchor="middle" class="n">RolesGuard</text><rect x="90" y="370" width="190" height="70" rx="12" fill="#ffe3e3" stroke="#c92a2a" class="d"/><text x="185" y="410" text-anchor="middle" class="l">403 Forbidden</text><path d="M410 405H280" class="p"/><text x="335" y="392" class="n">否</text><path d="M590 405H690" class="p"/><text x="625" y="392" class="n">是</text><path d="M780 345L870 405L780 465L690 405Z" fill="#e5dbff" stroke="#7048e8" class="d"/><text x="780" y="400" text-anchor="middle" class="l">owner 或 admin？</text><text x="780" y="423" text-anchor="middle" class="n">服务查询</text><rect x="680" y="535" width="200" height="70" rx="12" fill="#d3f9d8" stroke="#2b8a3e" class="d"/><text x="780" y="575" text-anchor="middle" class="l">执行业务</text><path d="M780 465V535" class="p"/><text x="795" y="505" class="n">是</text><rect x="400" y="535" width="190" height="70" rx="12" fill="#ffe3e3" stroke="#c92a2a" class="d"/><text x="495" y="575" text-anchor="middle" class="l">404 Not Found</text><path d="M690 405C630 430 570 480 520 535" class="p"/><text x="590" y="475" class="n">否 / 隐藏存在性</text></svg>
