<svg xmlns="http://www.w3.org/2000/svg" viewBox="0 0 1080 650" role="img"><defs><marker id="a" markerWidth="10" markerHeight="10" refX="9" refY="3" orient="auto"><path d="M0 0L10 3L0 6Z" fill="#495057"/></marker><style>text{font-family:'Kaiti SC','KaiTi',Arial,sans-serif;fill:#1b1b1f}.t{font-size:24px;font-weight:700}.l{font-size:17px;font-weight:700}.n{font-size:13px;fill:#495057}.life{stroke:#adb5bd;stroke-width:1.5;stroke-dasharray:7 7}.call{stroke:#495057;stroke-width:2;marker-end:url(#a)}.ret{stroke:#495057;stroke-width:2;stroke-dasharray:6 5;marker-end:url(#a)}</style></defs><rect width="1080" height="650" fill="#fff"/><text x="40" y="45" class="t">JWT：从凭据到当前用户上下文</text><g><rect x="45" y="75" width="150" height="58" rx="10" fill="#f1f3f5" stroke="#495057" stroke-width="2"/><text x="120" y="110" text-anchor="middle" class="l">客户端</text><rect x="280" y="75" width="170" height="58" rx="10" fill="#d0ebff" stroke="#1971c2" stroke-width="2"/><text x="365" y="110" text-anchor="middle" class="l">AuthController</text><rect x="535" y="75" width="170" height="58" rx="10" fill="#d3f9d8" stroke="#2b8a3e" stroke-width="2"/><text x="620" y="110" text-anchor="middle" class="l">AuthService</text><rect x="790" y="75" width="190" height="58" rx="10" fill="#e5dbff" stroke="#7048e8" stroke-width="2"/><text x="885" y="110" text-anchor="middle" class="l">User Repository</text><path d="M120 133V610M365 133V610M620 133V610M885 133V610" class="life"/></g><text x="165" y="176" class="n">注册：email + password</text><path d="M120 185H365" class="call"/><text x="423" y="226" class="n">hash(password, 12)</text><path d="M365 235H620" class="call"/><text x="704" y="276" class="n">save(passwordHash)</text><path d="M620 285H885" class="call"/><text x="657" y="326" class="n">user</text><path d="M885 335H620" class="ret"/><text x="405" y="376" class="n">sign JWT { sub, email, role }</text><path d="M620 385H365" class="ret"/><text x="165" y="426" class="n">accessToken</text><path d="M365 435H120" class="ret"/><rect x="55" y="485" width="950" height="105" rx="12" fill="#fff4e6" stroke="#d9480f" stroke-width="1.5" stroke-dasharray="7 5"/><text x="72" y="510" class="l">受保护请求</text><text x="165" y="546" class="n">Bearer accessToken</text><path d="M120 555H365" class="call"/><text x="405" y="546" class="n">Guard → Strategy 验签和过期时间 → request.user</text></svg>
