<svg xmlns="http://www.w3.org/2000/svg" viewBox="0 0 1040 600" role="img"><defs><marker id="a" markerWidth="10" markerHeight="10" refX="9" refY="3" orient="auto"><path d="M0 0L10 3L0 6Z" fill="#495057"/></marker><style>text{font-family:'Kaiti SC','KaiTi',Arial,sans-serif;fill:#1b1b1f}.t{font-size:24px;font-weight:700}.l{font-size:17px;font-weight:700}.n{font-size:13px;fill:#495057}.p{fill:none;stroke:#495057;stroke-width:2;marker-end:url(#a)}</style></defs><rect width="1040" height="600" fill="#fff"/><text x="40" y="46" class="t">旁路缓存：读时回填，写后失效</text><rect x="50" y="100" width="180" height="70" rx="12" fill="#d0ebff" stroke="#1971c2" stroke-width="2"/><text x="140" y="141" text-anchor="middle" class="l">GET Notes</text><rect x="310" y="100" width="190" height="70" rx="12" fill="#ffec99" stroke="#e67700" stroke-width="2"/><text x="405" y="131" text-anchor="middle" class="l">CacheService</text><text x="405" y="154" text-anchor="middle" class="n">Redis 或内存</text><path d="M230 135H310" class="p"/><path d="M500 135H610" class="p"/><rect x="610" y="100" width="180" height="70" rx="12" fill="#d3f9d8" stroke="#2b8a3e" stroke-width="2"/><text x="700" y="141" text-anchor="middle" class="l">命中 → 返回</text><path d="M405 170V260" class="p"/><text x="420" y="220" class="n">未命中</text><rect x="310" y="260" width="190" height="70" rx="12" fill="#e5dbff" stroke="#7048e8" stroke-width="2"/><text x="405" y="291" text-anchor="middle" class="l">仓储</text><text x="405" y="314" text-anchor="middle" class="n">查询数据库</text><path d="M500 295H610" class="p"/><rect x="610" y="260" width="180" height="70" rx="12" fill="#ffec99" stroke="#e67700" stroke-width="2"/><text x="700" y="291" text-anchor="middle" class="l">set + TTL</text><text x="700" y="314" text-anchor="middle" class="n">回填后返回</text><rect x="50" y="430" width="180" height="70" rx="12" fill="#d0ebff" stroke="#1971c2" stroke-width="2"/><text x="140" y="471" text-anchor="middle" class="l">写操作提交</text><path d="M230 465H390" class="p"/><rect x="390" y="430" width="250" height="70" rx="12" fill="#ffe8cc" stroke="#d9480f" stroke-width="2"/><text x="515" y="461" text-anchor="middle" class="l">invalidatePrefix</text><text x="515" y="484" text-anchor="middle" class="n">列表 + 单条缓存键</text><path d="M640 465H790" class="p"/><rect x="790" y="430" width="190" height="70" rx="12" fill="#d3f9d8" stroke="#2b8a3e" stroke-width="2"/><text x="885" y="471" text-anchor="middle" class="l">下次读取未命中</text><text x="40" y="560" class="n">Redis 操作失败：切换内存缓存；数据库始终是事实来源。</text></svg>
