<svg xmlns="http://www.w3.org/2000/svg" viewBox="0 0 980 570" role="img"><defs><marker id="a" markerWidth="10" markerHeight="10" refX="9" refY="3" orient="auto"><path d="M0 0L10 3L0 6Z" fill="#495057"/></marker><style>text{font-family:'Kaiti SC','KaiTi',Arial,sans-serif;fill:#1b1b1f}.t{font-size:24px;font-weight:700}.l{font-size:17px;font-weight:700}.n{font-size:13px;fill:#495057}.p{fill:none;stroke:#495057;stroke-width:2;marker-end:url(#a)}.b{stroke-width:2}</style></defs><rect width="980" height="570" fill="#fff"/><text x="42" y="48" class="t">CRUD 请求：输入边界、业务分支与统一响应</text><rect x="390" y="90" width="200" height="72" rx="12" class="b" fill="#d0ebff" stroke="#1971c2"/><text x="490" y="121" text-anchor="middle" class="l">HTTP 请求</text><text x="490" y="144" text-anchor="middle" class="n">Path / Query / Body</text><rect x="390" y="215" width="200" height="72" rx="12" class="b" fill="#ffec99" stroke="#e67700"/><text x="490" y="246" text-anchor="middle" class="l">DTO 转换与校验</text><text x="490" y="269" text-anchor="middle" class="n">page、pageSize、白名单</text><path d="M490 162V215" class="p"/><rect x="390" y="340" width="200" height="72" rx="12" class="b" fill="#d3f9d8" stroke="#2b8a3e"/><text x="490" y="371" text-anchor="middle" class="l">NotesService</text><text x="490" y="394" text-anchor="middle" class="n">Repository / QueryBuilder</text><path d="M490 287V340" class="p"/><rect x="685" y="340" width="210" height="72" rx="12" class="b" fill="#d3f9d8" stroke="#2b8a3e"/><text x="790" y="371" text-anchor="middle" class="l">200 / 201 / 204</text><text x="790" y="394" text-anchor="middle" class="n">资源或分页结果</text><path d="M590 376H685" class="p"/><rect x="85" y="340" width="210" height="72" rx="12" class="b" fill="#ffe3e3" stroke="#c92a2a"/><text x="190" y="371" text-anchor="middle" class="l">NotFoundException</text><text x="190" y="394" text-anchor="middle" class="n">记录不存在</text><path d="M390 376H295" class="p"/><rect x="85" y="465" width="210" height="72" rx="12" class="b" fill="#ffe8cc" stroke="#d9480f"/><text x="190" y="496" text-anchor="middle" class="l">HttpExceptionFilter</text><text x="190" y="519" text-anchor="middle" class="n">统一 400 / 404</text><path d="M190 412V465" class="p"/></svg>
